<svg width="900" height="1080" viewBox="0 0 900 1080" fill="none" xmlns="http://www.w3.org/2000/svg">
<path d="M90.0263 187.672L90 765C90 884.294 182.838 981.903 300.206 989.521L315 990L712.296 990.063C693.745 1042.46 643.756 1080 585 1080H270C120.883 1080 0 959.117 0 810V315C0 256.21 37.5789 206.198 90.0263 187.672ZM765 0C839.558 0 900 60.4416 900 135V765C900 839.558 839.558 900 765 900H315C240.442 900 180 839.558 180 765V135C180 60.4416 240.442 0 315 0H765ZM765 90H315C290.147 90 270 110.147 270 135V765C270 789.853 290.147 810 315 810H765C789.853 810 810 789.853 810 765V135C810 110.147 789.853 90 765 90Z" fill="#212121"/>
</svg>
