<svg width="1080" height="768" viewBox="0 0 1080 768" fill="none" xmlns="http://www.w3.org/2000/svg">
<path d="M1077.61 22.9653C1076.69 20.5407 1075.53 18.2151 1074.14 16.0239C1073.59 14.5701 1072.95 13.1532 1072.21 11.782C1068.62 8.21861 1064.61 5.11026 1060.26 2.52694L1053.7 0.213167H36.3268C33.6347 -0.0710557 30.9201 -0.0710557 28.228 0.213167L21.6717 2.52694C19.6312 3.63559 17.6951 4.92626 15.8868 6.38322C13.797 7.85831 11.8592 9.53764 10.1019 11.3964C9.36786 12.7671 8.72373 14.184 8.1736 15.6383C4.09492 19.7767 1.28482 24.995 0.0747219 30.6778C-0.0249073 32.2187 -0.0249073 33.7645 0.0747219 35.3054V729.437C0.0747219 739.665 4.13792 749.473 11.3705 756.705C18.603 763.937 28.4124 768 38.6408 768H1041.36C1051.59 768 1061.4 763.937 1068.63 756.705C1075.86 749.473 1079.93 739.665 1079.93 729.437V35.3054C1080.02 33.7645 1080.02 32.2187 1079.93 30.6778C1079.43 28.0333 1078.65 25.4483 1077.61 22.9653ZM927.975 73.8682L540 372.345L152.025 73.8682H927.975ZM1002.79 690.874H77.2069V112.431L516.475 450.242C523.218 455.433 531.49 458.247 540 458.247C548.51 458.247 556.782 455.433 563.525 450.242L1002.79 112.431V690.874Z" fill="black"/>
</svg>
