<svg width="1080" height="1086" viewBox="0 0 1080 1086" fill="none" xmlns="http://www.w3.org/2000/svg">
<path d="M792.112 652.142C781.261 646.719 710.73 614.18 699.879 608.757C689.029 603.333 678.178 603.333 667.327 614.18C656.476 625.026 634.774 657.566 623.924 668.412C618.498 679.258 607.647 679.258 596.796 673.835C558.818 657.566 520.841 635.873 488.288 608.757C461.161 581.64 434.034 549.101 412.332 516.562C406.907 505.715 412.332 494.869 417.757 489.446C423.183 484.022 428.608 473.176 439.459 467.753C444.885 462.33 450.31 451.483 450.31 446.06C455.735 440.637 455.735 429.79 450.31 424.367C444.885 418.944 417.757 353.865 406.907 326.749C401.481 288.787 390.63 288.787 379.78 288.787H352.652C341.802 288.787 325.525 299.633 320.1 305.056C287.547 337.596 271.271 375.558 271.271 418.944C276.697 467.753 292.973 516.562 325.525 559.948C385.205 646.719 461.161 717.221 553.393 760.607C580.52 771.453 602.222 782.3 629.349 787.723C656.476 798.569 683.603 798.569 716.156 793.146C754.134 787.723 786.686 760.607 808.388 728.067C819.239 706.375 819.239 684.682 813.813 662.989L792.112 652.142ZM927.747 158.629C716.156 -52.8764 374.354 -52.8764 162.763 158.629C-10.8508 332.172 -43.4034 597.91 75.9559 809.416L0 1086L287.547 1010.07C368.929 1053.46 455.735 1075.15 542.542 1075.15C840.94 1075.15 1079.66 836.532 1079.66 538.255C1085.08 397.251 1025.4 261.67 927.747 158.629ZM781.261 917.88C710.73 961.266 629.349 988.382 542.542 988.382C461.161 988.382 385.205 966.689 314.674 928.727L298.398 917.88L130.21 961.266L173.613 798.569L162.763 782.3C32.5525 565.371 97.6576 294.21 309.249 158.629C520.84 23.0487 792.112 93.5506 922.322 299.633C1052.53 511.139 992.852 787.723 781.261 917.88Z" fill="black"/>
</svg>
