<?xml version="1.0" standalone="no"?>
<!DOCTYPE svg PUBLIC "-//W3C//DTD SVG 20010904//EN"
 "http://www.w3.org/TR/2001/REC-SVG-20010904/DTD/svg10.dtd">
<svg version="1.0" xmlns="http://www.w3.org/2000/svg"
 width="700.000000pt" height="700.000000pt" viewBox="0 0 700.000000 700.000000"
 preserveAspectRatio="xMidYMid meet">
<metadata>
Created by potrace 1.14, written by Peter Selinger 2001-2017
</metadata>
<g transform="translate(0.000000,700.000000) scale(0.100000,-0.100000)"
fill="#000000" stroke="none">
<path d="M3315 6779 c-93 -54 -192 -112 -220 -128 -27 -16 -66 -38 -85 -49
-19 -11 -163 -94 -320 -184 -157 -91 -299 -173 -315 -182 -17 -9 -46 -26 -65
-37 -60 -36 -461 -267 -785 -454 -170 -97 -321 -185 -335 -194 -14 -8 -34 -21
-45 -27 -90 -48 -571 -329 -575 -335 -3 -4 -5 -765 -5 -1692 1 -1733 0 -1717
36 -1717 5 0 136 -74 291 -164 156 -90 299 -173 318 -184 19 -11 91 -52 160
-92 69 -40 139 -80 155 -90 17 -9 208 -119 425 -245 217 -125 485 -279 595
-343 110 -63 217 -125 237 -138 21 -13 39 -24 41 -24 4 0 322 -183 347 -200 8
-6 21 -13 29 -17 8 -3 64 -35 125 -71 61 -36 125 -73 143 -83 l32 -18 313 180
c172 100 331 191 353 204 22 12 117 67 211 122 94 55 178 103 185 107 8 3 30
16 49 27 19 12 210 122 425 246 214 124 431 249 480 278 50 29 113 65 141 81
29 16 214 123 413 238 l361 209 -2 1696 -3 1696 -110 63 c-160 93 -945 546
-980 566 -16 9 -45 26 -64 37 -43 26 -460 267 -521 301 -25 14 -187 108 -360
208 -173 100 -333 192 -355 205 -22 12 -118 68 -214 124 -95 55 -175 101 -177
101 -2 0 -33 18 -69 40 -36 22 -71 40 -78 39 -6 0 -88 -45 -182 -100z m740
-664 c303 -175 663 -383 800 -463 138 -80 266 -154 285 -164 60 -34 567 -327
739 -427 l164 -96 0 -1450 c-1 -797 -2 -1459 -2 -1470 -1 -12 -16 -28 -39 -41
-20 -11 -125 -71 -232 -133 -107 -62 -211 -122 -230 -133 -95 -55 -593 -342
-725 -419 -82 -48 -166 -96 -185 -107 -19 -11 -206 -118 -415 -239 -209 -121
-400 -231 -425 -245 -25 -14 -80 -46 -123 -72 -43 -25 -81 -46 -83 -46 -2 0
-22 -12 -44 -26 l-39 -26 -98 57 c-54 32 -118 69 -143 83 -25 14 -57 32 -72
41 -30 18 -367 213 -432 250 -22 13 -126 73 -231 133 -104 61 -208 121 -230
133 -47 27 -618 356 -1041 601 l-300 174 0 1465 c1 962 4 1467 11 1474 6 5
138 83 295 174 157 90 458 265 670 387 212 123 394 228 405 234 74 42 251 144
273 157 15 9 74 43 132 76 353 202 709 408 730 423 14 10 27 16 30 15 3 -1
253 -146 555 -320z"/>
<path d="M3128 5613 c-172 -43 -310 -172 -369 -344 -33 -97 -37 -234 -10 -332
34 -124 76 -195 187 -313 40 -43 177 -193 204 -225 15 -17 129 -143 197 -218
32 -35 33 -38 33 -132 l0 -95 -457 0 c-494 1 -527 -2 -592 -51 -47 -35 -58
-49 -84 -103 -20 -43 -21 -59 -23 -390 -1 -190 -3 -347 -3 -350 -1 -3 -42 -6
-93 -7 -79 -1 -99 -5 -147 -30 -63 -32 -115 -93 -132 -156 -7 -28 -11 -182
-10 -469 0 -397 2 -431 19 -471 28 -63 67 -103 129 -133 l56 -28 1468 0 1468
0 58 30 c65 33 117 93 133 154 7 25 11 199 11 469 l0 429 -26 56 c-49 103
-128 147 -268 150 l-91 1 -1 350 c0 338 -1 352 -22 395 -39 80 -96 127 -177
144 -34 8 -204 11 -503 11 -364 -1 -453 2 -454 12 -1 7 -1 24 -1 38 0 125 2
141 25 165 13 14 70 77 127 140 57 63 109 120 114 126 6 6 45 48 86 94 41 46
88 97 103 114 169 185 224 386 165 601 -85 312 -438 472 -710 322 l-37 -20
-53 26 c-104 50 -221 65 -320 40z m174 -257 c20 -7 60 -31 89 -52 47 -34 60
-39 109 -39 49 0 62 5 106 37 114 84 201 88 302 14 50 -37 99 -128 105 -196 6
-64 -16 -160 -50 -212 -23 -38 -85 -109 -223 -258 -8 -9 -49 -54 -90 -100 -41
-46 -92 -102 -113 -124 l-38 -41 -26 30 c-14 17 -64 71 -110 121 -46 50 -91
100 -101 111 -9 12 -55 62 -102 113 -108 118 -134 154 -155 215 -51 153 8 310
140 371 56 27 102 29 157 10z m1228 -1977 c0 -245 -3 -318 -12 -321 -7 -2
-470 -4 -1028 -4 l-1015 1 -3 321 -2 320 1030 0 1030 0 0 -317z m381 -589 c1
-3 2 -175 3 -382 1 -249 -2 -378 -9 -379 -32 -5 -2815 -3 -2816 1 -1 3 -2 176
-3 385 l-1 380 1412 0 c777 0 1414 -2 1414 -5z"/>
</g>
</svg>
